# xmcd CD database file
#
# Track frame offsets:
#	150
#	17897
#	42720
#	65134
#	96433
#	122210
#	143044
#	168263
#	200471
#	239363
#
# Disc length: 3382 seconds
#
# Revision: 0
# Processed by: cddbd v1.5.2PL0 Copyright (c) Steve Scherf et al.
# Submitted via: CDex 1.51
#
DISCID=960d340a
DTITLE=Rolf Zielke and Mustafa Boztüy - Duo
DYEAR=2010
DGENRE=Jazz
TTITLE0=Cooking at St. Peter's
TTITLE1=Lalo
TTITLE2=O Haupt voll Blut und Wunden
TTITLE3=Strange Things
TTITLE4=Tamzara
TTITLE5=Hot Pot
TTITLE6=Yagapriya
TTITLE7=Hokkaido
TTITLE8=The Glow of Temptation
TTITLE9=Batum
EXTD=YEAR: 2010
EXTT0=
EXTT1=
EXTT2=
EXTT3=
EXTT4=
EXTT5=
EXTT6=
EXTT7=
EXTT8=
EXTT9=
PLAYORDER=
